# xmcd
#
# Track frame offsets:
#	150
#	11963
#	24613
#	39913
#	51875
#	84050
#	95998
#	116595
#	134088
#	148000
#
# Disc length: 2216 seconds
#
# Revision: 0
# Processed by: cddbd v1.5.2PL0 Copyright (c) Steve Scherf et al.
# Submitted via: EasyCDDAExtractor 16.0.4.1
#
DISCID=8908a60a
DTITLE=Legends of Soul
DYEAR=1993
DGENRE=Soul
TTITLE0=Bobby Bland - Thats The Way Love Is
TTITLE1=Tyrone Davis - Can I Change My Mind
TTITLE2=O.V. Wright - You;re Gonna Make Me Cry
TTITLE3=Bobby Bland - Turn On Your Lovelight
TTITLE4=Lenny Williams - Cause I love You
TTITLE5=Tyrone Davis - Turn Back The Hands Of Time
TTITLE6=Clarence Carter - I Got Caught Making Love
TTITLE7=Bobby Womack - I Wish He Didn't Trust Me So Much
TTITLE8=O.V. Wright - Eight Men, Four Women
TTITLE9=Clarence Carter - Love Ain't Here No More
EXTD=
EXTT0=
EXTT1=
EXTT2=
EXTT3=
EXTT4=
EXTT5=
EXTT6=
EXTT7=
EXTT8=
EXTT9=
PLAYORDER=
